<mxfile host="Electron" agent="Mozilla/5.0 (Windows NT 10.0; Win64; x64) AppleWebKit/537.36 (KHTML, like Gecko) draw.io/26.2.2 Chrome/134.0.6998.178 Electron/35.1.2 Safari/537.36" version="26.2.2">
  <diagram name="Page-1" id="aL32edtmRIpp_hTL8Iet">
    <mxGraphModel dx="1051" dy="699" grid="1" gridSize="10" guides="1" tooltips="1" connect="1" arrows="1" fold="1" page="1" pageScale="1" pageWidth="850" pageHeight="1100" math="0" shadow="0">
      <root>
        <mxCell id="0" />
        <mxCell id="1" parent="0" />
        <mxCell id="pLBQWhbUN7bdAdHec_fn-2" value="&lt;font face=&quot;Verdana&quot;&gt;&lt;b&gt;Job Agency Management System&lt;/b&gt;&lt;/font&gt;" style="rounded=0;whiteSpace=wrap;html=1;align=center;fontFamily=Helvetica;" parent="1" vertex="1">
          <mxGeometry y="140" width="920" height="20" as="geometry" />
        </mxCell>
        <mxCell id="pLBQWhbUN7bdAdHec_fn-11" value="Client/Job Seeker" style="swimlane;horizontal=0;whiteSpace=wrap;html=1;" parent="1" vertex="1">
          <mxGeometry y="160" width="920" height="160" as="geometry" />
        </mxCell>
        <mxCell id="pLBQWhbUN7bdAdHec_fn-24" style="edgeStyle=orthogonalEdgeStyle;rounded=0;orthogonalLoop=1;jettySize=auto;html=1;exitX=1;exitY=0.5;exitDx=0;exitDy=0;" parent="pLBQWhbUN7bdAdHec_fn-11" source="pLBQWhbUN7bdAdHec_fn-20" edge="1">
          <mxGeometry relative="1" as="geometry">
            <mxPoint x="110" y="79.66666666666663" as="targetPoint" />
          </mxGeometry>
        </mxCell>
        <mxCell id="pLBQWhbUN7bdAdHec_fn-20" value="" style="ellipse;whiteSpace=wrap;html=1;aspect=fixed;" parent="pLBQWhbUN7bdAdHec_fn-11" vertex="1">
          <mxGeometry x="30" y="60" width="40" height="40" as="geometry" />
        </mxCell>
        <mxCell id="pLBQWhbUN7bdAdHec_fn-36" style="edgeStyle=orthogonalEdgeStyle;rounded=0;orthogonalLoop=1;jettySize=auto;html=1;exitX=1;exitY=0.5;exitDx=0;exitDy=0;entryX=0;entryY=0.5;entryDx=0;entryDy=0;" parent="pLBQWhbUN7bdAdHec_fn-11" source="pLBQWhbUN7bdAdHec_fn-25" target="pLBQWhbUN7bdAdHec_fn-27" edge="1">
          <mxGeometry relative="1" as="geometry" />
        </mxCell>
        <mxCell id="pLBQWhbUN7bdAdHec_fn-25" value="Create Profile" style="rounded=1;whiteSpace=wrap;html=1;" parent="pLBQWhbUN7bdAdHec_fn-11" vertex="1">
          <mxGeometry x="110" y="50" width="110" height="50" as="geometry" />
        </mxCell>
        <mxCell id="pLBQWhbUN7bdAdHec_fn-38" style="edgeStyle=orthogonalEdgeStyle;rounded=0;orthogonalLoop=1;jettySize=auto;html=1;exitX=1;exitY=0.5;exitDx=0;exitDy=0;entryX=0;entryY=0.5;entryDx=0;entryDy=0;" parent="pLBQWhbUN7bdAdHec_fn-11" source="pLBQWhbUN7bdAdHec_fn-27" target="pLBQWhbUN7bdAdHec_fn-29" edge="1">
          <mxGeometry relative="1" as="geometry" />
        </mxCell>
        <mxCell id="pLBQWhbUN7bdAdHec_fn-27" value="Search Jobs" style="rounded=1;whiteSpace=wrap;html=1;" parent="pLBQWhbUN7bdAdHec_fn-11" vertex="1">
          <mxGeometry x="250" y="50" width="120" height="50" as="geometry" />
        </mxCell>
        <mxCell id="pLBQWhbUN7bdAdHec_fn-39" style="edgeStyle=orthogonalEdgeStyle;rounded=0;orthogonalLoop=1;jettySize=auto;html=1;exitX=1;exitY=0.5;exitDx=0;exitDy=0;entryX=0;entryY=0.5;entryDx=0;entryDy=0;" parent="pLBQWhbUN7bdAdHec_fn-11" source="pLBQWhbUN7bdAdHec_fn-29" target="pLBQWhbUN7bdAdHec_fn-31" edge="1">
          <mxGeometry relative="1" as="geometry" />
        </mxCell>
        <mxCell id="pLBQWhbUN7bdAdHec_fn-29" value="Apply for Job" style="rounded=1;whiteSpace=wrap;html=1;" parent="pLBQWhbUN7bdAdHec_fn-11" vertex="1">
          <mxGeometry x="400" y="50" width="100" height="50" as="geometry" />
        </mxCell>
        <mxCell id="pLBQWhbUN7bdAdHec_fn-40" style="edgeStyle=orthogonalEdgeStyle;rounded=0;orthogonalLoop=1;jettySize=auto;html=1;exitX=1;exitY=0.5;exitDx=0;exitDy=0;entryX=0;entryY=0.5;entryDx=0;entryDy=0;" parent="pLBQWhbUN7bdAdHec_fn-11" source="pLBQWhbUN7bdAdHec_fn-31" target="pLBQWhbUN7bdAdHec_fn-33" edge="1">
          <mxGeometry relative="1" as="geometry" />
        </mxCell>
        <mxCell id="pLBQWhbUN7bdAdHec_fn-31" value="Attend Interview" style="rounded=1;whiteSpace=wrap;html=1;" parent="pLBQWhbUN7bdAdHec_fn-11" vertex="1">
          <mxGeometry x="530" y="50" width="120" height="50" as="geometry" />
        </mxCell>
        <mxCell id="pLBQWhbUN7bdAdHec_fn-33" value="Accept/Reject Offer" style="rounded=1;whiteSpace=wrap;html=1;" parent="pLBQWhbUN7bdAdHec_fn-11" vertex="1">
          <mxGeometry x="680" y="50" width="140" height="50" as="geometry" />
        </mxCell>
        <mxCell id="pLBQWhbUN7bdAdHec_fn-95" value="Profile Data" style="text;html=1;align=center;verticalAlign=middle;resizable=0;points=[];autosize=1;strokeColor=none;fillColor=none;" parent="pLBQWhbUN7bdAdHec_fn-11" vertex="1">
          <mxGeometry x="160" y="120" width="90" height="30" as="geometry" />
        </mxCell>
        <mxCell id="pLBQWhbUN7bdAdHec_fn-99" value="Application Data" style="text;html=1;align=center;verticalAlign=middle;whiteSpace=wrap;rounded=0;" parent="pLBQWhbUN7bdAdHec_fn-11" vertex="1">
          <mxGeometry x="365" y="120" width="60" height="30" as="geometry" />
        </mxCell>
        <mxCell id="pLBQWhbUN7bdAdHec_fn-120" value="Notification" style="text;html=1;align=center;verticalAlign=middle;whiteSpace=wrap;rounded=0;" parent="pLBQWhbUN7bdAdHec_fn-11" vertex="1">
          <mxGeometry x="540" y="110" width="60" height="30" as="geometry" />
        </mxCell>
        <mxCell id="pLBQWhbUN7bdAdHec_fn-115" value="Interview Invitation" style="text;html=1;align=center;verticalAlign=middle;whiteSpace=wrap;rounded=0;rotation=0;" parent="pLBQWhbUN7bdAdHec_fn-11" vertex="1">
          <mxGeometry x="420" y="120" width="80" height="30" as="geometry" />
        </mxCell>
        <mxCell id="pLBQWhbUN7bdAdHec_fn-12" value="Agency Staff" style="swimlane;horizontal=0;whiteSpace=wrap;html=1;" parent="1" vertex="1">
          <mxGeometry y="320" width="920" height="160" as="geometry" />
        </mxCell>
        <mxCell id="pLBQWhbUN7bdAdHec_fn-41" style="edgeStyle=orthogonalEdgeStyle;rounded=0;orthogonalLoop=1;jettySize=auto;html=1;exitX=1;exitY=0.5;exitDx=0;exitDy=0;" parent="pLBQWhbUN7bdAdHec_fn-12" source="pLBQWhbUN7bdAdHec_fn-34" edge="1">
          <mxGeometry relative="1" as="geometry">
            <mxPoint x="210" y="70.33333333333326" as="targetPoint" />
          </mxGeometry>
        </mxCell>
        <mxCell id="pLBQWhbUN7bdAdHec_fn-34" value="Register Candidate" style="rounded=1;whiteSpace=wrap;html=1;" parent="pLBQWhbUN7bdAdHec_fn-12" vertex="1">
          <mxGeometry x="60" y="40" width="120" height="60" as="geometry" />
        </mxCell>
        <mxCell id="pLBQWhbUN7bdAdHec_fn-43" style="edgeStyle=orthogonalEdgeStyle;rounded=0;orthogonalLoop=1;jettySize=auto;html=1;exitX=1;exitY=0.5;exitDx=0;exitDy=0;" parent="pLBQWhbUN7bdAdHec_fn-12" source="pLBQWhbUN7bdAdHec_fn-42" edge="1">
          <mxGeometry relative="1" as="geometry">
            <mxPoint x="360" y="70" as="targetPoint" />
          </mxGeometry>
        </mxCell>
        <mxCell id="pLBQWhbUN7bdAdHec_fn-42" value="Manage Profile" style="rounded=1;whiteSpace=wrap;html=1;" parent="pLBQWhbUN7bdAdHec_fn-12" vertex="1">
          <mxGeometry x="210" y="40" width="120" height="60" as="geometry" />
        </mxCell>
        <mxCell id="pLBQWhbUN7bdAdHec_fn-44" value="Validate Candidate" style="rounded=1;whiteSpace=wrap;html=1;" parent="pLBQWhbUN7bdAdHec_fn-12" vertex="1">
          <mxGeometry x="360" y="40" width="120" height="60" as="geometry" />
        </mxCell>
        <mxCell id="pLBQWhbUN7bdAdHec_fn-45" style="edgeStyle=orthogonalEdgeStyle;rounded=0;orthogonalLoop=1;jettySize=auto;html=1;exitX=1;exitY=0.5;exitDx=0;exitDy=0;" parent="pLBQWhbUN7bdAdHec_fn-12" source="pLBQWhbUN7bdAdHec_fn-44" edge="1">
          <mxGeometry relative="1" as="geometry">
            <mxPoint x="550" y="70" as="targetPoint" />
          </mxGeometry>
        </mxCell>
        <mxCell id="pLBQWhbUN7bdAdHec_fn-49" style="edgeStyle=orthogonalEdgeStyle;rounded=0;orthogonalLoop=1;jettySize=auto;html=1;exitX=0.5;exitY=0;exitDx=0;exitDy=0;" parent="pLBQWhbUN7bdAdHec_fn-12" source="pLBQWhbUN7bdAdHec_fn-48" edge="1">
          <mxGeometry relative="1" as="geometry">
            <mxPoint x="640" y="20" as="targetPoint" />
          </mxGeometry>
        </mxCell>
        <mxCell id="pLBQWhbUN7bdAdHec_fn-51" style="edgeStyle=orthogonalEdgeStyle;rounded=0;orthogonalLoop=1;jettySize=auto;html=1;exitX=1;exitY=0.5;exitDx=0;exitDy=0;" parent="pLBQWhbUN7bdAdHec_fn-12" source="pLBQWhbUN7bdAdHec_fn-48" edge="1">
          <mxGeometry relative="1" as="geometry">
            <mxPoint x="670" y="70.33333333333326" as="targetPoint" />
          </mxGeometry>
        </mxCell>
        <mxCell id="pLBQWhbUN7bdAdHec_fn-48" value="Valid?" style="rhombus;whiteSpace=wrap;html=1;" parent="pLBQWhbUN7bdAdHec_fn-12" vertex="1">
          <mxGeometry x="550" y="40" width="80" height="60" as="geometry" />
        </mxCell>
        <mxCell id="pLBQWhbUN7bdAdHec_fn-50" value="Notify Candidate" style="rounded=1;whiteSpace=wrap;html=1;" parent="pLBQWhbUN7bdAdHec_fn-12" vertex="1">
          <mxGeometry x="640" y="10" width="90" height="40" as="geometry" />
        </mxCell>
        <mxCell id="pLBQWhbUN7bdAdHec_fn-81" style="edgeStyle=orthogonalEdgeStyle;rounded=0;orthogonalLoop=1;jettySize=auto;html=1;exitX=0.5;exitY=1;exitDx=0;exitDy=0;" parent="pLBQWhbUN7bdAdHec_fn-12" source="pLBQWhbUN7bdAdHec_fn-52" edge="1">
          <mxGeometry relative="1" as="geometry">
            <mxPoint x="130" y="200" as="targetPoint" />
          </mxGeometry>
        </mxCell>
        <mxCell id="pLBQWhbUN7bdAdHec_fn-52" value="Add to Database" style="rounded=1;whiteSpace=wrap;html=1;" parent="pLBQWhbUN7bdAdHec_fn-12" vertex="1">
          <mxGeometry x="670" y="55" width="100" height="45" as="geometry" />
        </mxCell>
        <mxCell id="pLBQWhbUN7bdAdHec_fn-53" value="No" style="text;html=1;align=center;verticalAlign=middle;resizable=0;points=[];autosize=1;strokeColor=none;fillColor=none;" parent="pLBQWhbUN7bdAdHec_fn-12" vertex="1">
          <mxGeometry x="590" y="20" width="40" height="30" as="geometry" />
        </mxCell>
        <mxCell id="pLBQWhbUN7bdAdHec_fn-54" value="Yes" style="text;html=1;align=center;verticalAlign=middle;whiteSpace=wrap;rounded=0;" parent="pLBQWhbUN7bdAdHec_fn-12" vertex="1">
          <mxGeometry x="610" y="80" width="60" height="30" as="geometry" />
        </mxCell>
        <mxCell id="pLBQWhbUN7bdAdHec_fn-125" value="Job offer" style="text;html=1;align=center;verticalAlign=middle;whiteSpace=wrap;rounded=0;" parent="pLBQWhbUN7bdAdHec_fn-12" vertex="1">
          <mxGeometry x="750" y="100" width="60" height="30" as="geometry" />
        </mxCell>
        <mxCell id="pLBQWhbUN7bdAdHec_fn-16" value="Recruiter" style="swimlane;horizontal=0;whiteSpace=wrap;html=1;" parent="1" vertex="1">
          <mxGeometry y="480" width="920" height="160" as="geometry" />
        </mxCell>
        <mxCell id="pLBQWhbUN7bdAdHec_fn-55" value="Search Candidates" style="rounded=1;whiteSpace=wrap;html=1;" parent="pLBQWhbUN7bdAdHec_fn-16" vertex="1">
          <mxGeometry x="70" y="45" width="120" height="50" as="geometry" />
        </mxCell>
        <mxCell id="pLBQWhbUN7bdAdHec_fn-57" value="Mantch Requirements" style="rounded=1;whiteSpace=wrap;html=1;" parent="pLBQWhbUN7bdAdHec_fn-16" vertex="1">
          <mxGeometry x="230" y="47.5" width="120" height="47.5" as="geometry" />
        </mxCell>
        <mxCell id="pLBQWhbUN7bdAdHec_fn-56" style="edgeStyle=orthogonalEdgeStyle;rounded=0;orthogonalLoop=1;jettySize=auto;html=1;exitX=1;exitY=0.5;exitDx=0;exitDy=0;" parent="pLBQWhbUN7bdAdHec_fn-16" source="pLBQWhbUN7bdAdHec_fn-55" target="pLBQWhbUN7bdAdHec_fn-57" edge="1">
          <mxGeometry relative="1" as="geometry">
            <mxPoint x="220" y="75.66666666666674" as="targetPoint" />
          </mxGeometry>
        </mxCell>
        <mxCell id="pLBQWhbUN7bdAdHec_fn-59" value="Schedule Interview" style="rounded=1;whiteSpace=wrap;html=1;" parent="pLBQWhbUN7bdAdHec_fn-16" vertex="1">
          <mxGeometry x="390" y="47" width="120" height="46.25" as="geometry" />
        </mxCell>
        <mxCell id="pLBQWhbUN7bdAdHec_fn-58" style="edgeStyle=orthogonalEdgeStyle;rounded=0;orthogonalLoop=1;jettySize=auto;html=1;exitX=1;exitY=0.5;exitDx=0;exitDy=0;" parent="pLBQWhbUN7bdAdHec_fn-16" source="pLBQWhbUN7bdAdHec_fn-57" target="pLBQWhbUN7bdAdHec_fn-59" edge="1">
          <mxGeometry relative="1" as="geometry">
            <mxPoint x="370" y="75.66666666666674" as="targetPoint" />
          </mxGeometry>
        </mxCell>
        <mxCell id="pLBQWhbUN7bdAdHec_fn-61" value="Track Feedback" style="rounded=1;whiteSpace=wrap;html=1;" parent="pLBQWhbUN7bdAdHec_fn-16" vertex="1">
          <mxGeometry x="540" y="47.5" width="120" height="46.88" as="geometry" />
        </mxCell>
        <mxCell id="pLBQWhbUN7bdAdHec_fn-60" style="edgeStyle=orthogonalEdgeStyle;rounded=0;orthogonalLoop=1;jettySize=auto;html=1;exitX=1;exitY=0.5;exitDx=0;exitDy=0;" parent="pLBQWhbUN7bdAdHec_fn-16" source="pLBQWhbUN7bdAdHec_fn-59" target="pLBQWhbUN7bdAdHec_fn-61" edge="1">
          <mxGeometry relative="1" as="geometry">
            <mxPoint x="530" y="77" as="targetPoint" />
          </mxGeometry>
        </mxCell>
        <mxCell id="pLBQWhbUN7bdAdHec_fn-64" style="edgeStyle=orthogonalEdgeStyle;rounded=0;orthogonalLoop=1;jettySize=auto;html=1;exitX=1;exitY=0.5;exitDx=0;exitDy=0;entryX=0;entryY=0.5;entryDx=0;entryDy=0;" parent="pLBQWhbUN7bdAdHec_fn-16" source="pLBQWhbUN7bdAdHec_fn-63" edge="1">
          <mxGeometry relative="1" as="geometry">
            <mxPoint x="860" y="77.19000000000005" as="targetPoint" />
          </mxGeometry>
        </mxCell>
        <mxCell id="pLBQWhbUN7bdAdHec_fn-83" style="edgeStyle=orthogonalEdgeStyle;rounded=0;orthogonalLoop=1;jettySize=auto;html=1;exitX=0.5;exitY=1;exitDx=0;exitDy=0;entryX=0.5;entryY=1;entryDx=0;entryDy=0;" parent="pLBQWhbUN7bdAdHec_fn-16" source="pLBQWhbUN7bdAdHec_fn-63" target="pLBQWhbUN7bdAdHec_fn-55" edge="1">
          <mxGeometry relative="1" as="geometry" />
        </mxCell>
        <mxCell id="pLBQWhbUN7bdAdHec_fn-63" value="Placed?" style="rhombus;whiteSpace=wrap;html=1;" parent="pLBQWhbUN7bdAdHec_fn-16" vertex="1">
          <mxGeometry x="700" y="44.69" width="80" height="65" as="geometry" />
        </mxCell>
        <mxCell id="pLBQWhbUN7bdAdHec_fn-62" style="edgeStyle=orthogonalEdgeStyle;rounded=0;orthogonalLoop=1;jettySize=auto;html=1;exitX=1;exitY=0.5;exitDx=0;exitDy=0;" parent="pLBQWhbUN7bdAdHec_fn-16" source="pLBQWhbUN7bdAdHec_fn-61" target="pLBQWhbUN7bdAdHec_fn-63" edge="1">
          <mxGeometry relative="1" as="geometry">
            <mxPoint x="700" y="77" as="targetPoint" />
          </mxGeometry>
        </mxCell>
        <mxCell id="pLBQWhbUN7bdAdHec_fn-121" value="Candidate Database" style="text;html=1;align=center;verticalAlign=middle;whiteSpace=wrap;rounded=0;" parent="pLBQWhbUN7bdAdHec_fn-16" vertex="1">
          <mxGeometry x="140" y="10" width="60" height="30" as="geometry" />
        </mxCell>
        <mxCell id="pLBQWhbUN7bdAdHec_fn-128" value="No-Continue Matching" style="text;html=1;align=center;verticalAlign=middle;whiteSpace=wrap;rounded=0;" parent="pLBQWhbUN7bdAdHec_fn-16" vertex="1">
          <mxGeometry x="280" y="102.19" width="110" height="30" as="geometry" />
        </mxCell>
        <mxCell id="SmfkN_D-vJuEsnkQOZ5r-2" value="" style="html=1;verticalLabelPosition=bottom;labelBackgroundColor=#ffffff;verticalAlign=top;shadow=0;dashed=0;strokeWidth=2;shape=mxgraph.ios7.misc.circle;strokeColor=#222222;fillColor=none;" vertex="1" parent="pLBQWhbUN7bdAdHec_fn-16">
          <mxGeometry x="860" y="57.190000000000055" width="40" height="40" as="geometry" />
        </mxCell>
        <mxCell id="pLBQWhbUN7bdAdHec_fn-19" value="Employer" style="swimlane;horizontal=0;whiteSpace=wrap;html=1;" parent="1" vertex="1">
          <mxGeometry y="640" width="920" height="160" as="geometry" />
        </mxCell>
        <mxCell id="pLBQWhbUN7bdAdHec_fn-68" style="edgeStyle=orthogonalEdgeStyle;rounded=0;orthogonalLoop=1;jettySize=auto;html=1;exitX=1;exitY=0.5;exitDx=0;exitDy=0;" parent="pLBQWhbUN7bdAdHec_fn-19" source="pLBQWhbUN7bdAdHec_fn-67" edge="1">
          <mxGeometry relative="1" as="geometry">
            <mxPoint x="200" y="79.66666666666674" as="targetPoint" />
          </mxGeometry>
        </mxCell>
        <mxCell id="pLBQWhbUN7bdAdHec_fn-67" value="Register Job" style="rounded=1;whiteSpace=wrap;html=1;" parent="pLBQWhbUN7bdAdHec_fn-19" vertex="1">
          <mxGeometry x="50" y="55" width="120" height="50" as="geometry" />
        </mxCell>
        <mxCell id="pLBQWhbUN7bdAdHec_fn-71" style="edgeStyle=orthogonalEdgeStyle;rounded=0;orthogonalLoop=1;jettySize=auto;html=1;exitX=1;exitY=0.5;exitDx=0;exitDy=0;" parent="pLBQWhbUN7bdAdHec_fn-19" source="pLBQWhbUN7bdAdHec_fn-69" edge="1">
          <mxGeometry relative="1" as="geometry">
            <mxPoint x="350" y="79.66666666666674" as="targetPoint" />
          </mxGeometry>
        </mxCell>
        <mxCell id="pLBQWhbUN7bdAdHec_fn-69" value="Review Candidates" style="rounded=1;whiteSpace=wrap;html=1;" parent="pLBQWhbUN7bdAdHec_fn-19" vertex="1">
          <mxGeometry x="200" y="55" width="120" height="50" as="geometry" />
        </mxCell>
        <mxCell id="pLBQWhbUN7bdAdHec_fn-73" style="edgeStyle=orthogonalEdgeStyle;rounded=0;orthogonalLoop=1;jettySize=auto;html=1;exitX=1;exitY=0.5;exitDx=0;exitDy=0;" parent="pLBQWhbUN7bdAdHec_fn-19" source="pLBQWhbUN7bdAdHec_fn-72" edge="1">
          <mxGeometry relative="1" as="geometry">
            <mxPoint x="520" y="79.66666666666674" as="targetPoint" />
          </mxGeometry>
        </mxCell>
        <mxCell id="pLBQWhbUN7bdAdHec_fn-72" value="Conduct interview" style="rounded=1;whiteSpace=wrap;html=1;" parent="pLBQWhbUN7bdAdHec_fn-19" vertex="1">
          <mxGeometry x="350" y="55" width="140" height="50" as="geometry" />
        </mxCell>
        <mxCell id="pLBQWhbUN7bdAdHec_fn-76" style="edgeStyle=orthogonalEdgeStyle;rounded=0;orthogonalLoop=1;jettySize=auto;html=1;exitX=1;exitY=0.5;exitDx=0;exitDy=0;" parent="pLBQWhbUN7bdAdHec_fn-19" source="pLBQWhbUN7bdAdHec_fn-75" edge="1">
          <mxGeometry relative="1" as="geometry">
            <mxPoint x="680" y="79.66666666666674" as="targetPoint" />
          </mxGeometry>
        </mxCell>
        <mxCell id="pLBQWhbUN7bdAdHec_fn-75" value="Provide Feedback" style="rounded=1;whiteSpace=wrap;html=1;" parent="pLBQWhbUN7bdAdHec_fn-19" vertex="1">
          <mxGeometry x="520" y="55" width="130" height="50" as="geometry" />
        </mxCell>
        <mxCell id="pLBQWhbUN7bdAdHec_fn-77" value="Make Offer" style="rounded=1;whiteSpace=wrap;html=1;" parent="pLBQWhbUN7bdAdHec_fn-19" vertex="1">
          <mxGeometry x="680" y="50" width="150" height="50" as="geometry" />
        </mxCell>
        <mxCell id="pLBQWhbUN7bdAdHec_fn-124" value="Interview schedule" style="text;html=1;align=center;verticalAlign=middle;whiteSpace=wrap;rounded=0;" parent="pLBQWhbUN7bdAdHec_fn-19" vertex="1">
          <mxGeometry x="425" y="20" width="60" height="30" as="geometry" />
        </mxCell>
        <mxCell id="pLBQWhbUN7bdAdHec_fn-78" style="edgeStyle=orthogonalEdgeStyle;rounded=0;orthogonalLoop=1;jettySize=auto;html=1;exitX=0.5;exitY=1;exitDx=0;exitDy=0;entryX=0.5;entryY=0;entryDx=0;entryDy=0;" parent="1" source="pLBQWhbUN7bdAdHec_fn-25" target="pLBQWhbUN7bdAdHec_fn-34" edge="1">
          <mxGeometry relative="1" as="geometry">
            <Array as="points">
              <mxPoint x="165" y="330" />
              <mxPoint x="120" y="330" />
            </Array>
          </mxGeometry>
        </mxCell>
        <mxCell id="pLBQWhbUN7bdAdHec_fn-84" style="edgeStyle=orthogonalEdgeStyle;rounded=0;orthogonalLoop=1;jettySize=auto;html=1;exitX=0.5;exitY=0;exitDx=0;exitDy=0;entryX=0.5;entryY=1;entryDx=0;entryDy=0;" parent="1" source="pLBQWhbUN7bdAdHec_fn-67" target="pLBQWhbUN7bdAdHec_fn-57" edge="1">
          <mxGeometry relative="1" as="geometry">
            <Array as="points">
              <mxPoint x="110" y="650" />
              <mxPoint x="290" y="650" />
            </Array>
          </mxGeometry>
        </mxCell>
        <mxCell id="pLBQWhbUN7bdAdHec_fn-86" style="edgeStyle=orthogonalEdgeStyle;rounded=0;orthogonalLoop=1;jettySize=auto;html=1;exitX=0.5;exitY=0;exitDx=0;exitDy=0;entryX=0.374;entryY=1.037;entryDx=0;entryDy=0;entryPerimeter=0;" parent="1" source="pLBQWhbUN7bdAdHec_fn-75" target="pLBQWhbUN7bdAdHec_fn-61" edge="1">
          <mxGeometry relative="1" as="geometry" />
        </mxCell>
        <mxCell id="pLBQWhbUN7bdAdHec_fn-92" style="edgeStyle=orthogonalEdgeStyle;rounded=0;orthogonalLoop=1;jettySize=auto;html=1;exitX=0.5;exitY=1;exitDx=0;exitDy=0;entryX=0.5;entryY=0;entryDx=0;entryDy=0;" parent="1" source="pLBQWhbUN7bdAdHec_fn-27" target="pLBQWhbUN7bdAdHec_fn-42" edge="1">
          <mxGeometry relative="1" as="geometry" />
        </mxCell>
        <mxCell id="pLBQWhbUN7bdAdHec_fn-103" style="edgeStyle=orthogonalEdgeStyle;rounded=0;orthogonalLoop=1;jettySize=auto;html=1;exitX=0.25;exitY=1;exitDx=0;exitDy=0;entryX=0.25;entryY=0;entryDx=0;entryDy=0;" parent="1" source="pLBQWhbUN7bdAdHec_fn-29" target="pLBQWhbUN7bdAdHec_fn-44" edge="1">
          <mxGeometry relative="1" as="geometry" />
        </mxCell>
        <mxCell id="pLBQWhbUN7bdAdHec_fn-108" style="edgeStyle=orthogonalEdgeStyle;rounded=0;orthogonalLoop=1;jettySize=auto;html=1;exitX=0.75;exitY=1;exitDx=0;exitDy=0;entryX=0.5;entryY=0;entryDx=0;entryDy=0;" parent="1" source="pLBQWhbUN7bdAdHec_fn-59" target="pLBQWhbUN7bdAdHec_fn-72" edge="1">
          <mxGeometry relative="1" as="geometry" />
        </mxCell>
        <mxCell id="pLBQWhbUN7bdAdHec_fn-110" style="edgeStyle=orthogonalEdgeStyle;rounded=0;orthogonalLoop=1;jettySize=auto;html=1;exitX=1;exitY=0;exitDx=0;exitDy=0;entryX=0.864;entryY=1.05;entryDx=0;entryDy=0;entryPerimeter=0;" parent="1" source="pLBQWhbUN7bdAdHec_fn-59" target="pLBQWhbUN7bdAdHec_fn-29" edge="1">
          <mxGeometry relative="1" as="geometry">
            <Array as="points">
              <mxPoint x="510" y="440" />
              <mxPoint x="486" y="440" />
            </Array>
          </mxGeometry>
        </mxCell>
        <mxCell id="pLBQWhbUN7bdAdHec_fn-112" style="edgeStyle=orthogonalEdgeStyle;rounded=0;orthogonalLoop=1;jettySize=auto;html=1;exitX=0.25;exitY=0;exitDx=0;exitDy=0;entryX=0;entryY=1;entryDx=0;entryDy=0;" parent="1" source="pLBQWhbUN7bdAdHec_fn-61" target="pLBQWhbUN7bdAdHec_fn-31" edge="1">
          <mxGeometry relative="1" as="geometry">
            <Array as="points">
              <mxPoint x="550" y="528" />
              <mxPoint x="550" y="394" />
              <mxPoint x="530" y="394" />
            </Array>
          </mxGeometry>
        </mxCell>
        <mxCell id="pLBQWhbUN7bdAdHec_fn-113" style="edgeStyle=orthogonalEdgeStyle;rounded=0;orthogonalLoop=1;jettySize=auto;html=1;exitX=1;exitY=0;exitDx=0;exitDy=0;entryX=1;entryY=0.5;entryDx=0;entryDy=0;" parent="1" source="pLBQWhbUN7bdAdHec_fn-77" target="pLBQWhbUN7bdAdHec_fn-33" edge="1">
          <mxGeometry relative="1" as="geometry" />
        </mxCell>
        <mxCell id="pLBQWhbUN7bdAdHec_fn-114" style="edgeStyle=orthogonalEdgeStyle;rounded=0;orthogonalLoop=1;jettySize=auto;html=1;exitX=0.75;exitY=0;exitDx=0;exitDy=0;entryX=1;entryY=0;entryDx=0;entryDy=0;" parent="1" source="pLBQWhbUN7bdAdHec_fn-77" target="pLBQWhbUN7bdAdHec_fn-52" edge="1">
          <mxGeometry relative="1" as="geometry">
            <Array as="points">
              <mxPoint x="810" y="690" />
              <mxPoint x="810" y="355" />
              <mxPoint x="770" y="355" />
            </Array>
          </mxGeometry>
        </mxCell>
      </root>
    </mxGraphModel>
  </diagram>
</mxfile>
